<?xml version="1.0" encoding="UTF-8"?>
<svg enable-background="new 0 0 16 16" version="1.1" viewBox="0 0 16 16" xml:space="preserve" xmlns="http://www.w3.org/2000/svg">
	<path d="m15.841 8.192c0-0.54-0.052-1.098-0.139-1.621h-7.547v3.085h4.322c-0.174 0.993-0.749 1.865-1.603 2.423l2.579 2.004c1.516-1.412 2.388-3.469 2.388-5.891z" fill="#4380ED"/>
	<path d="m8.155 16c2.161 0 3.974-0.715 5.298-1.935l-2.579-1.987c-0.715 0.488-1.638 0.767-2.719 0.767-2.091 0-3.852-1.412-4.497-3.294l-2.649 2.039c1.359 2.702 4.113 4.41 7.146 4.41z" fill="#34A154"/>
	<path d="m3.658 9.534c-0.331-0.993-0.331-2.074 0-3.067l-2.649-2.057c-1.133 2.266-1.133 4.932 0 7.181l2.649-2.057z" fill="#F4B506"/>
	<path d="m8.155 3.172c1.133-0.017 2.248 0.418 3.067 1.203l2.283-2.301c-1.446-1.359-3.363-2.091-5.35-2.074-3.033 0-5.787 1.708-7.146 4.41l2.649 2.057c0.645-1.9 2.405-3.295 4.497-3.295z" fill="#E34335"/>
</svg>