<?xml version="1.0" encoding="UTF-8"?>
<svg enable-background="new 0 0 16 16" version="1.1" viewBox="0 0 16 16" xml:space="preserve" xmlns="http://www.w3.org/2000/svg">
	<linearGradient id="a" x2="16" y1="8" y2="8" gradientUnits="userSpaceOnUse">
		<stop stop-color="#FF7E00" offset="0"/>
		<stop stop-color="#EE007C" offset=".5"/>
		<stop stop-color="#8A29B4" offset=".75"/>
		<stop stop-color="#5059DB" offset="1"/>
	</linearGradient>
	<path d="m8 1.441c2.136 0 2.389 8e-3 3.233 0.047 0.78 0.036 1.204 0.166 1.485 0.275 0.373 0.145 0.64 0.318 0.92 0.598s0.453 0.546 0.598 0.92c0.11 0.282 0.24 0.706 0.275 1.485 0.039 0.845 0.048 1.098 0.048 3.234s-8e-3 2.389-0.047 3.233c-0.036 0.78-0.166 1.204-0.275 1.485-0.145 0.373-0.318 0.64-0.598 0.92s-0.546 0.453-0.92 0.598c-0.282 0.11-0.706 0.24-1.485 0.275-0.845 0.039-1.098 0.048-3.234 0.048s-2.389-8e-3 -3.233-0.047c-0.78-0.036-1.204-0.166-1.485-0.275-0.373-0.145-0.64-0.318-0.92-0.598s-0.453-0.546-0.598-0.92c-0.11-0.282-0.24-0.706-0.275-1.485-0.039-0.845-0.048-1.098-0.048-3.234s9e-3 -2.389 0.047-3.233c0.036-0.78 0.166-1.204 0.275-1.485 0.145-0.373 0.318-0.64 0.598-0.92s0.546-0.453 0.92-0.598c0.282-0.11 0.706-0.24 1.485-0.275 0.845-0.039 1.098-0.048 3.234-0.048m0-1.441c-2.173 0-2.445 9e-3 -3.298 0.048-0.852 0.039-1.433 0.174-1.942 0.372-0.526 0.204-0.973 0.478-1.417 0.923-0.445 0.444-0.719 0.891-0.923 1.417-0.198 0.509-0.333 1.09-0.372 1.942-0.039 0.853-0.048 1.125-0.048 3.298s9e-3 2.445 0.048 3.298c0.039 0.852 0.174 1.433 0.372 1.942 0.204 0.526 0.478 0.972 0.923 1.417s0.891 0.718 1.417 0.923c0.509 0.198 1.09 0.333 1.942 0.372 0.853 0.039 1.125 0.048 3.298 0.048s2.445-9e-3 3.298-0.048c0.852-0.039 1.433-0.174 1.942-0.372 0.526-0.204 0.972-0.478 1.417-0.923s0.718-0.891 0.923-1.417c0.198-0.509 0.333-1.09 0.372-1.942 0.039-0.853 0.048-1.125 0.048-3.298s-9e-3 -2.445-0.048-3.298c-0.039-0.852-0.174-1.433-0.372-1.942-0.204-0.526-0.478-0.972-0.923-1.417s-0.891-0.718-1.417-0.923c-0.509-0.198-1.09-0.333-1.942-0.372-0.853-0.039-1.125-0.048-3.298-0.048z" fill="url(#a)"/>
	<linearGradient id="b" x1="3.8919" x2="12.108" y1="8" y2="8" gradientUnits="userSpaceOnUse">
		<stop stop-color="#FF7E00" offset="0"/>
		<stop stop-color="#EE007C" offset=".5"/>
		<stop stop-color="#8A29B4" offset=".75"/>
		<stop stop-color="#5059DB" offset="1"/>
	</linearGradient>
	<path d="m8 3.892c-2.269 0-4.108 1.839-4.108 4.108s1.839 4.108 4.108 4.108 4.108-1.839 4.108-4.108-1.839-4.108-4.108-4.108zm0 6.775c-1.473 0-2.667-1.194-2.667-2.667s1.194-2.667 2.667-2.667 2.667 1.194 2.667 2.667-1.194 2.667-2.667 2.667z" fill="url(#b)"/>
	<linearGradient id="c" x1="11.31" x2="13.23" y1="3.7296" y2="3.7296" gradientUnits="userSpaceOnUse">
		<stop stop-color="#FF7E00" offset="0"/>
		<stop stop-color="#EE007C" offset=".5"/>
		<stop stop-color="#8A29B4" offset=".75"/>
		<stop stop-color="#5059DB" offset="1"/>
	</linearGradient>
	<circle cx="12.27" cy="3.73" r=".96" fill="url(#c)"/>
</svg>