<?xml version="1.0" encoding="UTF-8"?>
<svg enable-background="new 0 0 16 16" version="1.1" viewBox="0 0 16 16" xml:space="preserve" xmlns="http://www.w3.org/2000/svg">
	<path d="m6e-3 11.93c0.01 0.356 0.012 0.713 0.072 1.066 0.064 0.373 0.154 0.738 0.327 1.077 0.234 0.459 0.556 0.846 0.961 1.163 0.291 0.227 0.61 0.408 0.962 0.521 0.514 0.166 1.044 0.229 1.581 0.232 0.337 3e-3 0.672 0.011 1.008 0.01 2.437-0.01 4.875 0.018 7.312-0.015 0.323-4e-3 0.642-0.044 0.959-0.102 0.608-0.111 1.146-0.371 1.606-0.781 0.536-0.478 0.898-1.064 1.061-1.77 0.107-0.462 0.134-0.93 0.138-1.4v-0.094c0-0.036-0.014-7.987-0.015-8.092-4e-3 -0.289-0.025-0.575-0.079-0.859-0.066-0.346-0.159-0.683-0.324-0.996-0.175-0.332-0.394-0.629-0.665-0.889-0.415-0.398-0.895-0.68-1.453-0.829-0.504-0.135-1.018-0.164-1.536-0.164-1e-3 0-3e-3 -5e-3 -3e-3 -8e-3h-7.839v8e-3c-0.294 5e-3 -0.589 3e-3 -0.881 0.039-0.32 0.04-0.638 0.1-0.941 0.212-0.477 0.177-0.892 0.452-1.247 0.819-0.401 0.417-0.684 0.898-0.835 1.458-0.134 0.5-0.163 1.01-0.164 1.524" fill="#FFFA05"/>
	<path d="m8.074 13.499c-0.033 0-0.065-1e-3 -0.089-2e-3 -0.019 2e-3 -0.039 2e-3 -0.059 2e-3 -0.698 0-1.164-0.33-1.576-0.621-0.295-0.208-0.573-0.405-0.899-0.459-0.16-0.027-0.319-0.04-0.473-0.04-0.277 0-0.496 0.043-0.656 0.074-0.098 0.019-0.183 0.036-0.249 0.036-0.069 0-0.152-0.015-0.187-0.134-0.028-0.094-0.047-0.184-0.066-0.272-0.048-0.218-0.082-0.352-0.164-0.364-0.875-0.135-1.392-0.334-1.495-0.575-0.011-0.025-0.017-0.051-0.018-0.076-4e-3 -0.072 0.047-0.135 0.117-0.146 0.695-0.114 1.313-0.482 1.836-1.092 0.406-0.472 0.605-0.924 0.626-0.974 1e-3 -2e-3 2e-3 -5e-3 3e-3 -7e-3 0.101-0.205 0.121-0.382 0.06-0.526-0.112-0.266-0.485-0.384-0.732-0.462-0.061-0.019-0.12-0.038-0.166-0.056-0.219-0.087-0.579-0.27-0.531-0.522 0.035-0.184 0.278-0.312 0.475-0.312 0.055 0 0.103 0.01 0.144 0.029 0.222 0.104 0.422 0.157 0.594 0.157 0.214 0 0.317-0.081 0.342-0.104-7e-3 -0.115-0.014-0.236-0.022-0.35v-1e-3c-0.05-0.798-0.113-1.792 0.141-2.361 0.76-1.705 2.373-1.838 2.849-1.838 0.013 0 0.208-2e-3 0.208-2e-3h0.028c0.477 0 2.094 0.133 2.855 1.839 0.254 0.57 0.192 1.564 0.141 2.363l-2e-3 0.038c-7e-3 0.108-0.013 0.211-0.019 0.311 0.024 0.022 0.118 0.096 0.31 0.104 0.164-6e-3 0.352-0.059 0.56-0.156 0.064-0.03 0.135-0.036 0.183-0.036 0.073 0 0.147 0.014 0.209 0.04l3e-3 1e-3c0.176 0.062 0.291 0.187 0.294 0.318 2e-3 0.122-0.089 0.305-0.536 0.481-0.046 0.018-0.104 0.037-0.166 0.056-0.247 0.078-0.62 0.197-0.733 0.463-0.061 0.144-0.041 0.321 0.06 0.526 1e-3 2e-3 2e-3 4e-3 3e-3 7e-3 0.031 0.073 0.784 1.789 2.463 2.065 0.071 0.012 0.121 0.075 0.117 0.146-1e-3 0.026-8e-3 0.052-0.019 0.077-0.102 0.24-0.619 0.438-1.494 0.573-0.082 0.013-0.117 0.145-0.164 0.363-0.02 0.09-0.04 0.178-0.067 0.27-0.025 0.087-0.082 0.129-0.173 0.129h-0.014c-0.059 0-0.143-0.011-0.249-0.032-0.185-0.036-0.392-0.069-0.656-0.069-0.154 0-0.313 0.013-0.473 0.04-0.326 0.054-0.604 0.251-0.898 0.459-0.412 0.292-0.879 0.622-1.576 0.622" fill="#fff"/>
	<path d="m8.115 2.641c0.449 0 1.997 0.121 2.726 1.756 0.24 0.538 0.179 1.514 0.129 2.297-8e-3 0.124-0.015 0.245-0.022 0.36l-3e-3 0.049 0.035 0.037c0.013 0.015 0.138 0.145 0.416 0.156h4e-3 5e-3c0.184-7e-3 0.39-0.064 0.615-0.169 0.033-0.016 0.077-0.023 0.124-0.023 0.053 0 0.109 0.01 0.156 0.03l7e-3 3e-3c0.118 0.041 0.201 0.119 0.202 0.189 1e-3 0.04-0.029 0.183-0.446 0.348-0.041 0.016-0.095 0.033-0.157 0.053-0.272 0.086-0.682 0.216-0.82 0.542-0.078 0.183-0.056 0.4 0.063 0.643 0.049 0.115 0.824 1.861 2.569 2.149 0 8e-3 -2e-3 0.017-7e-3 0.028-0.03 0.07-0.217 0.31-1.387 0.491-0.183 0.028-0.228 0.233-0.28 0.472-0.019 0.085-0.038 0.172-0.064 0.261-8e-3 0.027-9e-3 0.028-0.038 0.028h-0.014c-0.052 0-0.131-0.011-0.222-0.029-0.166-0.032-0.393-0.072-0.683-0.072-0.162 0-0.329 0.014-0.496 0.042-0.358 0.06-0.649 0.265-0.957 0.483-0.414 0.292-0.842 0.595-1.495 0.595-0.028 0-0.056-1e-3 -0.084-2e-3h-7e-3l-7e-3 1e-3c-0.016 1e-3 -0.032 2e-3 -0.049 2e-3 -0.653 0-1.081-0.303-1.494-0.595-0.308-0.218-0.6-0.424-0.957-0.483-0.167-0.028-0.334-0.042-0.496-0.042-0.29 0-0.517 0.044-0.683 0.077-0.091 0.018-0.17 0.033-0.222 0.033-0.042 0-0.043-3e-3 -0.052-0.033-0.026-0.089-0.045-0.177-0.064-0.263-0.052-0.239-0.097-0.445-0.28-0.473-1.169-0.181-1.357-0.422-1.387-0.491-5e-3 -0.011-7e-3 -0.02-7e-3 -0.028 1.744-0.287 2.519-2.034 2.569-2.149 0.12-0.243 0.141-0.459 0.063-0.643-0.138-0.325-0.548-0.456-0.82-0.542-0.065-0.022-0.119-0.039-0.16-0.055-0.352-0.139-0.46-0.279-0.444-0.364 0.019-0.098 0.189-0.198 0.337-0.198 0.033 0 0.063 5e-3 0.084 0.016 0.241 0.113 0.461 0.17 0.654 0.17 0.303 0 0.438-0.141 0.453-0.157l0.033-0.037-4e-3 -0.05c-6e-3 -0.115-0.014-0.236-0.022-0.36-0.049-0.783-0.11-1.758 0.13-2.296 0.726-1.629 2.266-1.754 2.721-1.754 0.011 0 0.209-2e-3 0.209-2e-3 8e-3 -1e-3 0.017-1e-3 0.026-1e-3m0-0.281h-0.03c-0.073 1e-3 -0.195 2e-3 -0.206 2e-3 -0.266 0-0.799 0.038-1.372 0.29-0.327 0.144-0.622 0.34-0.875 0.58-0.302 0.287-0.548 0.64-0.731 1.051-0.267 0.602-0.204 1.614-0.152 2.428v1e-3c5e-3 0.087 0.011 0.178 0.016 0.267-0.039 0.018-0.103 0.037-0.197 0.037-0.151 0-0.331-0.048-0.534-0.144-0.06-0.027-0.128-0.041-0.204-0.041-0.121 0-0.249 0.036-0.359 0.101-0.139 0.081-0.229 0.197-0.254 0.325-0.016 0.085-0.015 0.252 0.171 0.422 0.102 0.093 0.253 0.18 0.447 0.256 0.051 0.02 0.111 0.039 0.175 0.06 0.222 0.071 0.558 0.177 0.646 0.384 0.045 0.104 0.026 0.242-0.056 0.408-2e-3 5e-3 -5e-3 9e-3 -7e-3 0.014-0.02 0.048-0.211 0.481-0.603 0.937-0.223 0.26-0.468 0.477-0.729 0.645-0.318 0.206-0.663 0.34-1.024 0.4-0.142 0.023-0.243 0.149-0.235 0.293 2e-3 0.041 0.012 0.083 0.029 0.122v1e-3c0.057 0.134 0.19 0.248 0.406 0.348 0.264 0.123 0.659 0.226 1.173 0.306 0.026 0.049 0.053 0.174 0.072 0.259 0.02 0.09 0.04 0.183 0.069 0.282 0.031 0.107 0.113 0.235 0.322 0.235 0.079 0 0.17-0.018 0.276-0.038 0.155-0.03 0.366-0.072 0.629-0.072 0.146 0 0.298 0.013 0.45 0.038 0.294 0.049 0.547 0.228 0.841 0.435 0.429 0.303 0.915 0.647 1.657 0.647 0.02 0 0.04-1e-3 0.061-2e-3 0.024 1e-3 0.055 2e-3 0.087 2e-3 0.742 0 1.228-0.344 1.657-0.647l1e-3 -1e-3c0.293-0.207 0.546-0.386 0.84-0.435 0.152-0.025 0.304-0.038 0.45-0.038 0.252 0 0.451 0.032 0.629 0.067 0.116 0.023 0.207 0.034 0.276 0.034h7e-3 7e-3c0.153 0 0.265-0.084 0.308-0.231 0.028-0.097 0.049-0.188 0.069-0.279 0.017-0.08 0.045-0.208 0.071-0.257 0.515-0.081 0.909-0.184 1.173-0.306 0.216-0.1 0.348-0.214 0.406-0.347 0.017-0.04 0.027-0.081 0.03-0.124 8e-3 -0.143-0.093-0.27-0.235-0.293-1.604-0.264-2.326-1.912-2.356-1.982-2e-3 -5e-3 -4e-3 -9e-3 -6e-3 -0.014-0.082-0.166-0.101-0.304-0.056-0.409 0.088-0.206 0.424-0.313 0.646-0.383 0.064-0.02 0.125-0.04 0.176-0.06 0.219-0.086 0.375-0.18 0.478-0.287 0.123-0.127 0.147-0.249 0.146-0.328-4e-3 -0.193-0.151-0.364-0.385-0.448-0.079-0.033-0.169-0.05-0.261-0.05-0.063 0-0.155 9e-3 -0.243 0.049-0.188 0.088-0.356 0.136-0.5 0.143-0.077-4e-3 -0.131-0.02-0.165-0.036 4e-3 -0.075 9e-3 -0.152 0.014-0.233l2e-3 -0.034c0.051-0.814 0.115-1.828-0.153-2.429-0.184-0.412-0.431-0.766-0.734-1.054-0.254-0.241-0.55-0.436-0.878-0.58-0.573-0.249-1.106-0.287-1.373-0.287" fill="#020202"/>
</svg>