<?xml version="1.0" encoding="UTF-8"?>
<svg enable-background="new 0 0 16 16" version="1.1" viewBox="0 0 16 16" xml:space="preserve" xmlns="http://www.w3.org/2000/svg">
	<g fill="#29F2EC">
		<path d="m6.439 6.301v-0.623c-0.216-0.035-0.435-0.053-0.654-0.056-2.121-5e-3 -3.999 1.37-4.636 3.393s0.115 4.226 1.856 5.437c-1.827-1.955-1.723-5.021 0.232-6.847 0.871-0.814 2.011-1.278 3.202-1.304z"/>
		<path d="m6.557 13.364c1.186-2e-3 2.161-0.936 2.213-2.121v-10.574h1.932c-0.04-0.22-0.059-0.445-0.057-0.669h-2.642v10.563c-0.044 1.191-1.021 2.134-2.213 2.136-0.356-3e-3 -0.706-0.091-1.022-0.256 0.415 0.576 1.08 0.918 1.789 0.921zm7.752-9.107v-0.588c-0.711 0-1.406-0.209-1.998-0.603 0.519 0.604 1.22 1.022 1.998 1.191z"/>
	</g>
	<path d="m12.311 3.066c-0.583-0.664-0.905-1.518-0.905-2.402h-0.705c0.184 0.988 0.766 1.857 1.61 2.402zm-6.526 5.198c-1.225 6e-3 -2.213 1.004-2.207 2.229 4e-3 0.819 0.46 1.569 1.184 1.951-0.717-0.99-0.496-2.373 0.494-3.09 0.378-0.274 0.833-0.421 1.3-0.421 0.222 3e-3 0.443 0.037 0.655 0.103v-2.689c-0.217-0.032-0.435-0.05-0.654-0.051h-0.118v2.044c-0.213-0.057-0.434-0.083-0.654-0.076z" fill="#FC2C55"/>
	<path d="m14.309 4.257v2.044c-1.316-3e-3 -2.598-0.419-3.664-1.191v5.371c-6e-3 2.68-2.18 4.85-4.86 4.85-0.995 2e-3 -1.967-0.305-2.78-0.879 1.824 1.962 4.893 2.073 6.854 0.25 0.987-0.917 1.547-2.204 1.548-3.551v-5.356c1.07 0.767 2.353 1.178 3.669 1.175v-2.631c-0.258-1e-3 -0.515-0.029-0.767-0.082z" fill="#FC2C55"/>
	<path d="m10.645 10.482v-5.372c1.069 0.767 2.353 1.178 3.669 1.175v-2.043c-0.778-0.164-1.481-0.577-2.003-1.175-0.844-0.546-1.426-1.414-1.61-2.402h-1.932v10.579c-0.05 1.224-1.083 2.176-2.307 2.126-0.678-0.028-1.307-0.365-1.705-0.914-1.084-0.571-1.5-1.912-0.929-2.996 0.382-0.727 1.132-1.182 1.952-1.186 0.222 2e-3 0.442 0.036 0.654 0.102v-2.044c-2.675 0.045-4.807 2.251-4.762 4.926 0.02 1.211 0.494 2.371 1.328 3.251 0.821 0.555 1.794 0.842 2.785 0.823 2.68-1e-3 4.854-2.17 4.86-4.85z"/>
</svg>
