<?xml version="1.0" encoding="UTF-8"?>
<svg enable-background="new 0 0 16 16" version="1.1" viewBox="0 0 16 16" xml:space="preserve" xmlns="http://www.w3.org/2000/svg">
	<path d="m15.834 4.553s-0.166-1.188-0.634-1.709c-0.606-0.691-1.297-0.691-1.6-0.719-2.234-0.166-5.6-0.194-5.6-0.194s-3.366 0.028-5.6 0.194c-0.303 0.028-0.994 0.056-1.6 0.719-0.497 0.522-0.634 1.709-0.634 1.709s-0.166 1.406-0.166 2.813v1.297c0 1.406 0.166 2.788 0.166 2.788s0.166 1.188 0.634 1.709c0.606 0.691 1.406 0.663 1.766 0.744 1.268 0.137 5.434 0.165 5.434 0.165s3.366 0 5.6-0.194c0.303-0.028 0.994-0.056 1.6-0.719 0.469-0.525 0.634-1.709 0.634-1.709s0.166-1.406 0.166-2.788v-1.297c0-1.403-0.166-2.809-0.166-2.809" fill="#D5362A"/>
	<polygon points="6.069 5.213 6.069 11.2 11.309 8.275" fill="#fff"/>
</svg>